<?xml version="1.0" encoding="UTF-8" standalone="no"?>
<svg
   xmlns:dc="http://purl.org/dc/elements/1.1/"
   xmlns:cc="http://creativecommons.org/ns#"
   xmlns:rdf="http://www.w3.org/1999/02/22-rdf-syntax-ns#"
   xmlns:svg="http://www.w3.org/2000/svg"
   xmlns="http://www.w3.org/2000/svg"
   xmlns:sodipodi="http://sodipodi.sourceforge.net/DTD/sodipodi-0.dtd"
   xmlns:inkscape="http://www.inkscape.org/namespaces/inkscape"
   width="512"
   height="512"
   version="1.1"
   viewBox="0 0 512 512"
   id="svg80"
   sodipodi:docname="folder.svg"
   inkscape:version="0.92.2 (unknown)">
  <metadata
     id="metadata84">
    <rdf:RDF>
      <cc:Work
         rdf:about="">
        <dc:format>image/svg+xml</dc:format>
        <dc:type
           rdf:resource="http://purl.org/dc/dcmitype/StillImage" />
        <dc:title></dc:title>
      </cc:Work>
    </rdf:RDF>
  </metadata>
  <sodipodi:namedview
     pagecolor="#ffffff"
     bordercolor="#666666"
     borderopacity="1"
     objecttolerance="10"
     gridtolerance="10"
     guidetolerance="10"
     inkscape:pageopacity="0"
     inkscape:pageshadow="2"
     inkscape:window-width="1920"
     inkscape:window-height="1025"
     id="namedview82"
     showgrid="false"
     inkscape:zoom="0.64424668"
     inkscape:cx="-345.42993"
     inkscape:cy="168.41977"
     inkscape:window-x="0"
     inkscape:window-y="27"
     inkscape:window-maximized="1"
     inkscape:current-layer="svg80" />
  <defs
     id="defs70">
    <filter
       id="filter4166"
       style="color-interpolation-filters:sRGB"
       width="1.056"
       height="1.099"
       x="-.03"
       y="-.05">
      <feGaussianBlur
         stdDeviation="5.9"
         id="feGaussianBlur67" />
    </filter>
  </defs>
  <path
     style="fill:#245dc4;fill-rule:evenodd;stroke:#000000;stroke-width:0"
     d="m 55.066853,94.276715 c -7.824275,0 -14.123816,6.297845 -14.123816,14.122115 l 0,37.32867 0,120.13243 0,121.5455 0,7.30708 c 0,5.98757 4.819796,10.80737 10.807375,10.80737 l 408.499318,0 c 5.98757,0 10.80907,-4.8198 10.80907,-10.80737 l 0,-128.85257 -0.002,0 0,-120.13243 c 0,-11.78329 -9.48585,-21.26915 -21.26914,-21.26915 l -218.96832,0 c -5.81617,0 -8.11397,-0.68519 -11.8386,-4.18889 L 197.01302,98.500575 c -0.0748,-0.0762 -0.15164,-0.15024 -0.22814,-0.22473 l -0.0443,-0.0426 -0.002,0.002 c -2.53734,-2.44894 -5.98807,-3.95828 -9.80972,-3.95828 z"
     id="path72" />
  <path
     style="opacity:0.3;fill-rule:evenodd;stroke:#000000;stroke-width:0;filter:url(#filter4166)"
     d="m 28.241425,148.07206 c -12.87594,0 -23.24141,9.6069 -23.24141,21.54052 l 16,244.76159 0,7.4003 c 0,6.06398 5.26673,10.94526 11.80953,10.94526 l 446.379045,0 c 6.54281,0 11.81139,-4.88128 11.81139,-10.94526 l 15.998,-252.16189 c 0,-11.93362 -10.36547,-21.54052 -23.24141,-21.54052 l -455.515295,0 z"
     transform="matrix(0.88626203,0,0,0.86265191,29.117811,27.075351)"
     id="path74" />
  <path
     style="fill:#367bf0;fill-rule:evenodd;stroke:#000000;stroke-width:0"
     d="m 47.569939,157.23082 c -11.78328,0 -21.26914,8.79166 -21.26914,19.7126 l 14.64224,223.99111 v 6.77231 c 0,5.54939 4.81979,10.01644 10.80737,10.01644 H 460.24973 c 5.98757,0 10.80907,-4.46705 10.80907,-10.01644 l 14.64041,-230.76343 c 0,-10.92094 -9.48585,-19.71259 -21.26914,-19.71259 H 47.569809 Z"
     id="path76" />
  <path
     style="fill:#ffffff;stroke:#ffffff;stroke-width:8.0534277"
     d="m 210.266,677.75562 v 10.23918 h 66.88311 l 29.6789,36.22509 v 71.23218 h -9.28002 v 8.79037 h 18.05915 l -0.39094,-82.14317 v -2.12203 l -34.59168,-42.22172 z m 0.13406,16.91334 v 20.45878 h 8.38809 v -20.45878 z m 0,40.93565 v 20.47697 h 8.38809 v -20.47697 z m 0,42.70912 v 17.13834 h -14.0264 v 8.77378 h 14.0264 v 15.47624 h 8.37431 v -15.47624 h 14.04188 v -8.77378 h -14.04188 v -17.13834 z m 40.64512,17.13834 v 8.79037 h 24.03206 v -8.79037 z"
     id="path78" />
  <path
     inkscape:connector-curvature="0"
     style="fill:#ffffff;stroke-width:4.60108805"
     d="m 231.75229,206.13557 -7.95989,4.60109 11.01501,19.08807 c -20.13437,9.72762 -20.2172,32.42295 -20.2172,32.42295 h 82.8196 c 0,0 -0.0919,-22.69717 -20.21717,-32.42295 l 11.01499,-19.08807 -7.962,-4.60109 -11.91589,20.63311 c -3.65328,-0.81715 -7.68382,-1.32971 -12.31252,-1.32971 -4.63789,0 -8.68686,0.51073 -12.34932,1.32971 l -11.91681,-20.63311 z m 5.86178,37.70775 c 2.549,0 4.58268,2.05208 4.58268,4.58269 0,2.5306 -2.06128,4.61949 -4.58268,4.61949 -2.549,0 -4.61949,-2.06129 -4.61949,-4.61949 0,-2.53061 2.07047,-4.58269 4.61949,-4.58269 z m 36.80869,0 c 2.54901,0 4.58268,2.05208 4.58268,4.58269 0,2.5306 -2.06128,4.61949 -4.58268,4.61949 -2.54899,0 -4.61948,-2.06129 -4.61948,-4.61949 0,-2.53061 2.07049,-4.58269 4.61948,-4.58269 z m 37.19519,22.99347 c -5.29124,0 -9.60706,4.87715 -9.60706,10.88619 v 42.61066 c 0,6.00904 4.31582,10.91379 9.60706,10.91379 5.29126,0 8.79728,-4.90475 8.79728,-10.91379 v -42.61066 c 0,-6.01823 -3.49682,-10.89538 -8.79728,-10.89538 m -97.02774,0.009 -0.003,78.2185 c -4e-5,2.16923 2.43297,4.60109 4.60219,4.60109 h 13.80326 v 17.255 c 0,5.72375 3.64411,10.35244 9.20219,10.35244 5.52306,0 9.38529,-4.63412 9.20216,-10.35152 v -17.2544 h 9.20219 v 17.25513 c 0,5.72376 3.64406,10.35244 9.20218,10.35244 5.52305,0 9.20217,-4.70902 9.20217,-10.35153 v -17.25407 h 13.80326 c 2.17172,0 4.60109,-2.42937 4.60109,-4.6011 V 266.8401 Z m -13.39837,0 c -5.29401,0 -9.60707,4.87715 -9.60707,10.88617 v 42.61068 c 0,6.00902 4.31306,10.91379 9.60707,10.91379 5.29401,0 8.79732,-4.90477 8.79732,-10.91379 v -42.61068 c 0,-6.01821 -3.49683,-10.89537 -8.79732,-10.89537 m 72.85363,-20.42882 m -77.08571,16.19583"
     id="path8" />
</svg>
