<?xml version="1.0" encoding="UTF-8" standalone="no"?>
<svg
   xmlns:dc="http://purl.org/dc/elements/1.1/"
   xmlns:cc="http://creativecommons.org/ns#"
   xmlns:rdf="http://www.w3.org/1999/02/22-rdf-syntax-ns#"
   xmlns:svg="http://www.w3.org/2000/svg"
   xmlns="http://www.w3.org/2000/svg"
   xmlns:sodipodi="http://sodipodi.sourceforge.net/DTD/sodipodi-0.dtd"
   xmlns:inkscape="http://www.inkscape.org/namespaces/inkscape"
   width="512"
   height="512"
   version="1.1"
   viewBox="0 0 512 512"
   id="svg80"
   sodipodi:docname="folder-steam.svg"
   inkscape:version="0.92.2 (unknown)">
  <metadata
     id="metadata84">
    <rdf:RDF>
      <cc:Work
         rdf:about="">
        <dc:format>image/svg+xml</dc:format>
        <dc:type
           rdf:resource="http://purl.org/dc/dcmitype/StillImage" />
        <dc:title></dc:title>
      </cc:Work>
    </rdf:RDF>
  </metadata>
  <sodipodi:namedview
     pagecolor="#ffffff"
     bordercolor="#666666"
     borderopacity="1"
     objecttolerance="10"
     gridtolerance="10"
     guidetolerance="10"
     inkscape:pageopacity="0"
     inkscape:pageshadow="2"
     inkscape:window-width="960"
     inkscape:window-height="1025"
     id="namedview82"
     showgrid="false"
     inkscape:zoom="1.2884934"
     inkscape:cx="191.84582"
     inkscape:cy="250.25659"
     inkscape:window-x="960"
     inkscape:window-y="27"
     inkscape:window-maximized="0"
     inkscape:current-layer="svg80" />
  <defs
     id="defs70">
    <filter
       id="filter4166"
       style="color-interpolation-filters:sRGB"
       width="1.056"
       height="1.099"
       x="-.03"
       y="-.05">
      <feGaussianBlur
         stdDeviation="5.9"
         id="feGaussianBlur67" />
    </filter>
  </defs>
  <path
     style="fill:#245dc4;fill-rule:evenodd;stroke:#000000;stroke-width:0"
     d="m 55.066853,94.276715 c -7.824275,0 -14.123816,6.297845 -14.123816,14.122115 l 0,37.32867 0,120.13243 0,121.5455 0,7.30708 c 0,5.98757 4.819796,10.80737 10.807375,10.80737 l 408.499318,0 c 5.98757,0 10.80907,-4.8198 10.80907,-10.80737 l 0,-128.85257 -0.002,0 0,-120.13243 c 0,-11.78329 -9.48585,-21.26915 -21.26914,-21.26915 l -218.96832,0 c -5.81617,0 -8.11397,-0.68519 -11.8386,-4.18889 L 197.01302,98.500575 c -0.0748,-0.0762 -0.15164,-0.15024 -0.22814,-0.22473 l -0.0443,-0.0426 -0.002,0.002 c -2.53734,-2.44894 -5.98807,-3.95828 -9.80972,-3.95828 z"
     id="path72" />
  <path
     style="opacity:0.3;fill-rule:evenodd;stroke:#000000;stroke-width:0;filter:url(#filter4166)"
     d="m 28.241425,148.07206 c -12.87594,0 -23.24141,9.6069 -23.24141,21.54052 l 16,244.76159 0,7.4003 c 0,6.06398 5.26673,10.94526 11.80953,10.94526 l 446.379045,0 c 6.54281,0 11.81139,-4.88128 11.81139,-10.94526 l 15.998,-252.16189 c 0,-11.93362 -10.36547,-21.54052 -23.24141,-21.54052 l -455.515295,0 z"
     transform="matrix(0.88626203,0,0,0.86265191,29.117811,27.075351)"
     id="path74" />
  <path
     style="fill:#367bf0;fill-rule:evenodd;stroke:#000000;stroke-width:0"
     d="m 47.569939,157.23082 c -11.78328,0 -21.26914,8.79166 -21.26914,19.7126 l 14.64224,223.99111 v 6.77231 c 0,5.54939 4.81979,10.01644 10.80737,10.01644 H 460.24973 c 5.98757,0 10.80907,-4.46705 10.80907,-10.01644 l 14.64041,-230.76343 c 0,-10.92094 -9.48585,-19.71259 -21.26914,-19.71259 H 47.569809 Z"
     id="path76" />
  <path
     style="fill:#ffffff;stroke:#ffffff;stroke-width:8.0534277"
     d="m 210.266,677.75562 v 10.23918 h 66.88311 l 29.6789,36.22509 v 71.23218 h -9.28002 v 8.79037 h 18.05915 l -0.39094,-82.14317 v -2.12203 l -34.59168,-42.22172 z m 0.13406,16.91334 v 20.45878 h 8.38809 v -20.45878 z m 0,40.93565 v 20.47697 h 8.38809 v -20.47697 z m 0,42.70912 v 17.13834 h -14.0264 v 8.77378 h 14.0264 v 15.47624 h 8.37431 v -15.47624 h 14.04188 v -8.77378 h -14.04188 v -17.13834 z m 40.64512,17.13834 v 8.79037 h 24.03206 v -8.79037 z"
     id="path78" />
  <path
     inkscape:connector-curvature="0"
     style="fill:#ffffff;stroke-width:12.994277;fill-opacity:1"
     class="ColorScheme-Text"
     d="m 320.9691,223.53264 c -20.34552,0.004 -37.26641,15.65407 -38.856,35.93736 l -27.25745,42.48517 c -1.76943,-0.30016 -3.56055,-0.45219 -5.35507,-0.45739 -5.96787,0.013 -11.81608,1.67561 -16.90269,4.7967 l -15.68448,-8.85742 a 32.485691,32.485691 0 0 0 0.10395,-2.43642 32.485691,32.485691 0 0 0 -32.48568,-32.4857 32.485691,32.485691 0 0 0 -32.4857,32.4857 32.485691,32.485691 0 0 0 32.4857,32.48569 32.485691,32.485691 0 0 0 20.12591,-7.03017 l 13.01962,7.23314 c -0.42361,2.07155 -0.64582,4.17961 -0.66011,6.29416 0,17.94133 14.54437,32.4857 32.48569,32.4857 17.94133,0 32.48569,-14.54437 32.48569,-32.4857 -0.007,-1.3666 -0.10395,-2.73125 -0.27937,-4.08605 l 33.75471,-28.83105 c 1.82323,0.27418 3.66374,0.41843 5.50736,0.43142 21.52957,0 38.98284,-17.45327 38.98284,-38.98284 0,-21.52969 -17.45327,-38.98282 -38.98284,-38.98282 z m 0,12.99428 c 14.35309,0 25.98856,11.63546 25.98856,25.98854 0,14.3531 -11.63547,25.98856 -25.98856,25.98856 -14.35309,0 -25.98855,-11.63546 -25.98855,-25.98856 0,-14.35308 11.63546,-25.98854 25.98855,-25.98854 z m 0,12.99427 c -7.1766,0 -12.99427,5.8178 -12.99427,12.99427 0,7.17662 5.81767,12.99429 12.99427,12.99429 7.17648,0 12.99428,-5.81767 12.99428,-12.99429 0,-7.17647 -5.8178,-12.99427 -12.99428,-12.99427 z m -136.4399,25.98856 a 19.491415,19.491415 0 0 1 18.75542,14.23796 l -5.71046,-3.22324 -0.2287,-0.026 a 12.994276,12.994276 0 0 0 -6.31951,-1.62428 12.994276,12.994276 0 0 0 -12.99427,12.99428 12.994276,12.994276 0 0 0 6.54781,11.24303 l 0.10395,0.2287 6.90322,3.8324 a 19.491415,19.491415 0 0 1 -7.05538,1.3197 19.491415,19.491415 0 0 1 -19.49141,-19.49141 19.491415,19.491415 0 0 1 19.49141,-19.49141 z m 64.46383,38.98282 c 0.16892,-0.002 0.33785,-0.002 0.50807,0 10.76485,0 19.49141,8.7267 19.49141,19.49141 0,10.76486 -8.72656,19.49143 -19.49141,19.49143 -10.42686,-0.003 -19.00452,-8.21187 -19.46607,-18.62847 l 6.4718,3.73078 c 6.43996,3.71637 14.52149,1.69433 18.1209,-4.54292 3.59942,-6.23726 1.31334,-14.25226 -5.12663,-17.96862 l -2.43642,-1.39598 c 0.63932,-0.091 1.28383,-0.15073 1.92887,-0.17801 z"
     id="path5" />
</svg>
