<?xml version="1.0" encoding="UTF-8" standalone="no"?>
<svg
   xmlns:dc="http://purl.org/dc/elements/1.1/"
   xmlns:cc="http://creativecommons.org/ns#"
   xmlns:rdf="http://www.w3.org/1999/02/22-rdf-syntax-ns#"
   xmlns:svg="http://www.w3.org/2000/svg"
   xmlns="http://www.w3.org/2000/svg"
   xmlns:sodipodi="http://sodipodi.sourceforge.net/DTD/sodipodi-0.dtd"
   xmlns:inkscape="http://www.inkscape.org/namespaces/inkscape"
   width="512"
   height="512"
   version="1.1"
   viewBox="0 0 512 512"
   id="svg80"
   sodipodi:docname="folder-private.svg"
   inkscape:version="0.92.2 (unknown)">
  <metadata
     id="metadata84">
    <rdf:RDF>
      <cc:Work
         rdf:about="">
        <dc:format>image/svg+xml</dc:format>
        <dc:type
           rdf:resource="http://purl.org/dc/dcmitype/StillImage" />
        <dc:title></dc:title>
      </cc:Work>
    </rdf:RDF>
  </metadata>
  <sodipodi:namedview
     pagecolor="#ffffff"
     bordercolor="#666666"
     borderopacity="1"
     objecttolerance="10"
     gridtolerance="10"
     guidetolerance="10"
     inkscape:pageopacity="0"
     inkscape:pageshadow="2"
     inkscape:window-width="960"
     inkscape:window-height="1025"
     id="namedview82"
     showgrid="false"
     inkscape:zoom="0.91110239"
     inkscape:cx="88.907251"
     inkscape:cy="-36.726865"
     inkscape:window-x="960"
     inkscape:window-y="27"
     inkscape:window-maximized="0"
     inkscape:current-layer="svg80" />
  <defs
     id="defs70">
    <filter
       id="filter4166"
       style="color-interpolation-filters:sRGB"
       width="1.056"
       height="1.099"
       x="-.03"
       y="-.05">
      <feGaussianBlur
         stdDeviation="5.9"
         id="feGaussianBlur67" />
    </filter>
  </defs>
  <path
     style="fill:#245dc4;fill-rule:evenodd;stroke:#000000;stroke-width:0"
     d="m 55.066853,94.276715 c -7.824275,0 -14.123816,6.297845 -14.123816,14.122115 l 0,37.32867 0,120.13243 0,121.5455 0,7.30708 c 0,5.98757 4.819796,10.80737 10.807375,10.80737 l 408.499318,0 c 5.98757,0 10.80907,-4.8198 10.80907,-10.80737 l 0,-128.85257 -0.002,0 0,-120.13243 c 0,-11.78329 -9.48585,-21.26915 -21.26914,-21.26915 l -218.96832,0 c -5.81617,0 -8.11397,-0.68519 -11.8386,-4.18889 L 197.01302,98.500575 c -0.0748,-0.0762 -0.15164,-0.15024 -0.22814,-0.22473 l -0.0443,-0.0426 -0.002,0.002 c -2.53734,-2.44894 -5.98807,-3.95828 -9.80972,-3.95828 z"
     id="path72" />
  <path
     style="opacity:0.3;fill-rule:evenodd;stroke:#000000;stroke-width:0;filter:url(#filter4166)"
     d="m 28.241425,148.07206 c -12.87594,0 -23.24141,9.6069 -23.24141,21.54052 l 16,244.76159 0,7.4003 c 0,6.06398 5.26673,10.94526 11.80953,10.94526 l 446.379045,0 c 6.54281,0 11.81139,-4.88128 11.81139,-10.94526 l 15.998,-252.16189 c 0,-11.93362 -10.36547,-21.54052 -23.24141,-21.54052 l -455.515295,0 z"
     transform="matrix(0.88626203,0,0,0.86265191,29.117811,27.075351)"
     id="path74" />
  <path
     style="fill:#367bf0;fill-rule:evenodd;stroke:#000000;stroke-width:0"
     d="m 47.569939,157.23082 c -11.78328,0 -21.26914,8.79166 -21.26914,19.7126 l 14.64224,223.99111 v 6.77231 c 0,5.54939 4.81979,10.01644 10.80737,10.01644 H 460.24973 c 5.98757,0 10.80907,-4.46705 10.80907,-10.01644 l 14.64041,-230.76343 c 0,-10.92094 -9.48585,-19.71259 -21.26914,-19.71259 H 47.569809 Z"
     id="path76" />
  <path
     style="fill:#ffffff;stroke:#ffffff;stroke-width:8.0534277"
     d="m 210.266,677.75562 v 10.23918 h 66.88311 l 29.6789,36.22509 v 71.23218 h -9.28002 v 8.79037 h 18.05915 l -0.39094,-82.14317 v -2.12203 l -34.59168,-42.22172 z m 0.13406,16.91334 v 20.45878 h 8.38809 v -20.45878 z m 0,40.93565 v 20.47697 h 8.38809 v -20.47697 z m 0,42.70912 v 17.13834 h -14.0264 v 8.77378 h 14.0264 v 15.47624 h 8.37431 v -15.47624 h 14.04188 v -8.77378 h -14.04188 v -17.13834 z m 40.64512,17.13834 v 8.79037 h 24.03206 v -8.79037 z"
     id="path78" />
  <path
     inkscape:connector-curvature="0"
     style="fill:#ffffff;stroke-width:11.11032295;fill-opacity:1"
     d="m 211.5587,297.5565 c -18.44311,0 -33.33095,14.88782 -33.33095,33.33096 0,18.44313 14.88784,33.33097 33.33095,33.33097 17.33211,0 31.33113,-13.33238 32.99767,-30.22008 3.33309,-1.99987 7.3328,-3.11089 11.44363,-3.11089 4.11082,0 8.11053,1.11102 11.44362,3.11089 1.66656,16.8877 15.66556,30.22008 32.99766,30.22008 18.44314,0 33.33097,-14.88784 33.33097,-33.33097 0,-18.44314 -14.88783,-33.33096 -33.33097,-33.33096 -15.44334,0 -28.22021,10.77702 -31.88662,24.99823 -3.9997,-1.55546 -8.11053,-2.77758 -12.55466,-2.77758 -4.44414,0 -8.55496,1.22212 -12.44356,2.77758 -3.7775,-14.22121 -16.55439,-24.99823 -31.99774,-24.99823 z m 0,13.88791 c 10.77703,0 19.44306,8.66604 19.44306,19.44305 0,10.77702 -8.66603,19.44306 -19.44306,19.44306 -10.77701,0 -19.44305,-8.66604 -19.44305,-19.44306 0,-10.77701 8.66604,-19.44305 19.44305,-19.44305 z m 88.88258,0 c 10.77702,0 19.44306,8.66604 19.44306,19.44305 0,10.77702 -8.66604,19.44306 -19.44306,19.44306 -10.77702,0 -19.44305,-8.66604 -19.44305,-19.44306 0,-10.77701 8.66603,-19.44305 19.44305,-19.44305 z"
     id="path2" />
  <path
     inkscape:connector-curvature="0"
     style="fill:#ffffff;stroke-width:11.11032295;fill-opacity:1"
     d="m 211.55871,219.78425 -8.33273,33.33096 h 105.54804 l -8.33273,-33.33096 -44.44128,5.55515 z m -11.11031,44.44129 -33.33098,22.22064 h 177.76516 l -33.33097,-22.22064 z"
     id="path4" />
</svg>
