<?xml version="1.0" encoding="UTF-8" standalone="no"?>
<svg
   xmlns:dc="http://purl.org/dc/elements/1.1/"
   xmlns:cc="http://creativecommons.org/ns#"
   xmlns:rdf="http://www.w3.org/1999/02/22-rdf-syntax-ns#"
   xmlns:svg="http://www.w3.org/2000/svg"
   xmlns="http://www.w3.org/2000/svg"
   id="svg15"
   viewBox="0 0 512 512"
   version="1.1"
   height="512"
   width="512">
  <metadata
     id="metadata19">
    <rdf:RDF>
      <cc:Work
         rdf:about="">
        <dc:format>image/svg+xml</dc:format>
        <dc:type
           rdf:resource="http://purl.org/dc/dcmitype/StillImage" />
        <dc:title></dc:title>
      </cc:Work>
    </rdf:RDF>
  </metadata>
  <defs
     id="defs5">
    <filter
       y="-.05"
       x="-.03"
       height="1.099"
       width="1.056"
       style="color-interpolation-filters:sRGB"
       id="filter4166">
      <feGaussianBlur
         id="feGaussianBlur2"
         stdDeviation="5.9" />
    </filter>
  </defs>
  <path
     id="path7"
     d="m 55.066853,94.276715 c -7.824275,0 -14.123816,6.297845 -14.123816,14.122115 l 0,37.32867 0,120.13243 0,121.5455 0,7.30708 c 0,5.98757 4.819796,10.80737 10.807375,10.80737 l 408.499318,0 c 5.98757,0 10.80907,-4.8198 10.80907,-10.80737 l 0,-128.85257 -0.002,0 0,-120.13243 c 0,-11.78329 -9.48585,-21.26915 -21.26914,-21.26915 l -218.96832,0 c -5.81617,0 -8.11397,-0.68519 -11.8386,-4.18889 L 197.01302,98.500575 c -0.0748,-0.0762 -0.15164,-0.15024 -0.22814,-0.22473 l -0.0443,-0.0426 -0.002,0.002 c -2.53734,-2.44894 -5.98807,-3.95828 -9.80972,-3.95828 z"
     style="fill:#245dc4;fill-rule:evenodd;stroke:#000000;stroke-width:0" />
  <path
     id="path9"
     transform="matrix(0.88626203,0,0,0.86265191,29.117811,27.075351)"
     d="m 28.241425,148.07206 c -12.87594,0 -23.24141,9.6069 -23.24141,21.54052 l 16,244.76159 0,7.4003 c 0,6.06398 5.26673,10.94526 11.80953,10.94526 l 446.379045,0 c 6.54281,0 11.81139,-4.88128 11.81139,-10.94526 l 15.998,-252.16189 c 0,-11.93362 -10.36547,-21.54052 -23.24141,-21.54052 l -455.515295,0 z"
     style="opacity:0.3;fill-rule:evenodd;stroke:#000000;stroke-width:0;filter:url(#filter4166)" />
  <path
     id="path11"
     d="m 47.569939,157.23082 c -11.78328,0 -21.26914,8.79166 -21.26914,19.7126 l 14.64224,223.99111 v 6.77231 c 0,5.54939 4.81979,10.01644 10.80737,10.01644 H 460.24973 c 5.98757,0 10.80907,-4.46705 10.80907,-10.01644 l 14.64041,-230.76343 c 0,-10.92094 -9.48585,-19.71259 -21.26914,-19.71259 H 47.569809 Z"
     style="fill:#367bf0;fill-rule:evenodd;stroke:#000000;stroke-width:0" />
  <path
     id="path13"
     d="m 210.266,677.75562 v 10.23918 h 66.88311 l 29.6789,36.22509 v 71.23218 h -9.28002 v 8.79037 h 18.05915 l -0.39094,-82.14317 v -2.12203 l -34.59168,-42.22172 z m 0.13406,16.91334 v 20.45878 h 8.38809 v -20.45878 z m 0,40.93565 v 20.47697 h 8.38809 v -20.47697 z m 0,42.70912 v 17.13834 h -14.0264 v 8.77378 h 14.0264 v 15.47624 h 8.37431 v -15.47624 h 14.04188 v -8.77378 h -14.04188 v -17.13834 z m 40.64512,17.13834 v 8.79037 h 24.03206 v -8.79037 z"
     style="fill:#ffffff;stroke:#ffffff;stroke-width:8.0534277" />
  <path
     id="path837"
     d="m 231.28666,360.29703 -18.15009,-9.04036 -0.17302,-14.48759 c -0.15889,-13.30442 0.004,-21.98471 0.42106,-22.4015 0.26427,-0.26428 5.25597,2.09051 21.86723,10.31566 l 15.50522,7.6775 -0.12236,17.87456 c -0.0673,9.83101 -0.21542,18.15075 -0.32913,18.48831 -0.11372,0.33759 -0.35572,0.61379 -0.53779,0.61379 -0.18208,0 -8.49857,-4.06816 -18.48112,-9.04037 z m 24.20749,-5.2128 c -0.10393,-7.83924 -0.14927,-16.14194 -0.10066,-18.45044 l 0.0883,-4.19728 14.04857,-7.03823 c 17.01313,-8.52344 22.85036,-11.31878 23.10472,-11.06443 0.22802,0.22802 0.57637,16.48516 0.60652,28.30514 0.0162,6.3816 -0.0593,8.41734 -0.31967,8.61952 -0.57317,0.44492 -36.72046,18.07373 -37.06667,18.07718 -0.0947,6.9e-4 -0.25717,-6.41222 -0.36113,-14.25146 z m -53.34237,-9.43932 c -11.1172,-5.25777 -30.47322,-15.18727 -31.48414,-16.15116 -0.4971,-0.47397 -0.52817,-1.11725 -0.63424,-13.13012 -0.10458,-11.84247 0.14167,-22.89166 0.51854,-23.26852 0.28067,-0.28067 4.63561,1.76952 21.25985,10.00855 l 15.98402,7.92175 0.17793,5.49165 c 0.2209,6.81723 0.17714,29.20403 -0.0593,30.31535 -0.11564,0.54371 -0.35656,0.83896 -0.71788,0.87978 -0.29909,0.0338 -2.56926,-0.89651 -5.04482,-2.06728 z m 96.1212,1.52847 c -0.11532,-0.33757 -0.18306,-8.53144 -0.15051,-18.20859 0.0542,-16.08351 0.0984,-17.62404 0.51519,-17.93504 0.73045,-0.54498 29.90085,-15.09869 33.44606,-16.68695 1.77209,-0.7939 3.30657,-1.35877 3.4099,-1.25528 0.25776,0.25823 0.20978,31.35121 -0.0528,34.27222 l -0.21138,2.35038 -7.6848,3.96702 c -11.97303,6.18062 -28.16504,14.11002 -28.81305,14.11002 -0.13688,0 -0.34322,-0.27619 -0.45854,-0.61378 z m -66.89278,-29.52548 -18.33188,-9.13458 0.0756,-18.1216 c 0.0416,-9.96688 0.15971,-18.20556 0.26241,-18.30819 0.32561,-0.32538 7.49779,3.01565 22.63198,10.54272 l 14.68962,7.30595 -7e-4,14.12873 c -8.8e-4,16.17645 -0.1959,22.72156 -0.67623,22.72156 -0.17537,0 -8.56822,-4.11056 -18.65077,-9.13459 z m 24.41234,7.87531 c -0.22745,-1.65946 -0.22422,-28.13514 0.004,-32.60941 l 0.17611,-3.45284 13.12119,-6.48768 c 18.55879,-9.17624 23.15315,-11.32781 23.48366,-10.99756 0.33912,0.33884 0.51491,27.93268 0.21082,33.09144 l -0.20735,3.51756 -17.73122,8.93571 c -9.75216,4.91464 -17.99032,9.01199 -18.30702,9.10522 -0.51317,0.15107 -0.59481,0.0311 -0.75018,-1.10244 z m 42.45004,-20.78397 c -0.36294,-1.29497 -0.25152,-21.80282 0.12046,-22.17471 0.41714,-0.41705 1.07306,-0.13721 10.78731,4.60244 l 7.56741,3.69218 3.8358,-1.82507 c 4.6031,-2.19015 6.3536,-2.89787 7.15895,-2.89432 0.81535,0.004 3.21666,1.15464 3.81577,1.82907 0.38522,0.43364 0.41317,0.60223 0.13642,0.82431 -1.14592,0.9196 -28.09304,14.55149 -31.85769,16.11601 l -1.35857,0.5646 z m -94.99965,-1.36044 c -5.02571,-2.30368 -28.49893,-13.95813 -30.74413,-15.26445 -1.14251,-0.66475 -1.80713,-1.25661 -2.04592,-1.82191 -0.44377,-1.05062 -0.50772,-34.55294 -0.0679,-35.54801 0.26781,-0.60583 0.31895,-0.58937 4.90258,1.5785 2.54758,1.20488 10.89243,5.36757 18.54413,9.25041 l 13.91218,7.05971 v 17.82222 c 0,11.39484 -0.0984,17.9871 -0.27279,18.27941 -0.24342,0.40799 -0.6985,0.26204 -4.2282,-1.35588 z m 47.1923,-19.0329 c -4.08721,-1.67307 -28.75941,-13.95101 -32.81564,-16.33045 -1.58315,-0.92869 -1.98299,-0.57613 4.58294,-4.04112 11.7006,-6.17467 29.83978,-15.00039 30.82419,-14.9977 1.29086,0.004 36.41718,17.42511 36.41718,18.06181 0,0.24679 -3.40004,2.25297 -7.90802,4.66609 -8.1081,4.34025 -27.19994,13.61453 -28.00156,13.60235 -0.42922,-0.006 -1.8238,-0.43896 -3.09909,-0.96098 z m 69.18229,-0.0423 c -0.0918,-0.0918 -0.16696,-8.50281 -0.16696,-18.69107 v -18.5241 l 18.43532,-9.1184 c 10.13944,-5.01511 18.52925,-9.1184 18.64405,-9.1184 0.4346,0 0.56025,7.15525 0.38453,21.89618 l -0.18175,15.24709 -18.47413,9.23785 c -10.16072,5.0808 -18.54923,9.16268 -18.64106,9.07086 z m -7.50739,-0.94385 c -1.0909,-0.41891 -13.60222,-6.6304 -13.83696,-6.86962 -0.0199,-0.0204 -0.17773,-2.06247 -0.35054,-4.53802 -0.17283,-2.47554 -0.38534,-4.95097 -0.47224,-5.50094 l -0.15802,-0.99994 -7.53868,-3.83691 c -7.7833,-3.96144 -11.77509,-6.20213 -12.72164,-7.14098 -0.52997,-0.52564 -0.54455,-0.87848 -0.50964,-12.33126 0.0198,-6.48457 0.14252,-12.1226 0.27279,-12.52895 l 0.23685,-0.73883 2.59148,1.12345 c 3.37952,1.46509 33.84299,16.79251 34.35555,17.2857 0.33092,0.3184 0.41236,2.84681 0.51229,15.90071 0.12157,15.88419 -0.0178,20.78219 -0.59022,20.7564 -0.17354,-0.008 -0.97951,-0.26918 -1.79102,-0.58081 z m -105.8969,-20.77419 c -7.38473,-3.44737 -29.51763,-14.91043 -31.69328,-16.41458 -0.44768,-0.30948 -0.40112,-0.39063 0.54557,-0.9507 2.42659,-1.43558 14.64093,-7.71795 24.66588,-12.68673 l 10.80981,-5.35779 14.96864,7.50661 c 16.11061,8.07931 21.16401,10.77273 21.02036,11.2037 -0.15322,0.45966 -6.86568,4.03793 -18.46359,9.84253 -10.61235,5.31135 -17.44823,8.58547 -17.92524,8.58547 -0.124,0 -1.89167,-0.77783 -3.92815,-1.72851 z m 61.95321,-11.86537 c -4.11435,-1.8621 -9.08222,-4.49181 -9.20511,-4.87263 -0.10164,-0.31499 9.25264,-5.0859 11.45543,-5.84255 1.53714,-0.528 1.66785,-0.24746 1.79564,3.85375 0.15413,4.94681 -0.13462,8.1833 -0.72879,8.1688 -0.2491,-0.006 -1.74181,-0.5944 -3.31717,-1.30737 z m -16.64006,-8.34383 c -4.66861,-1.7631 -30.58954,-14.86278 -34.0136,-17.1895 l -0.95375,-0.64808 3.09412,-1.66683 c 8.32386,-4.48413 31.47228,-15.86817 33.09429,-16.27527 0.82215,-0.20633 2.78914,0.66144 12.41834,5.47855 7.12751,3.56561 12.8913,6.6553 13.45788,7.21412 0.27923,0.2754 -1.00801,1.24616 -3.37179,2.54278 -2.7977,1.53465 -2.73645,1.40141 -2.99892,6.52301 -0.12548,2.44856 -0.29989,4.63606 -0.38756,4.8611 -0.41222,1.05822 -15.79947,8.77455 -18.70228,9.37874 -0.37509,0.0781 -1.11161,-0.0203 -1.63673,-0.21862 z m 64.24154,0.0524 c -1.83019,-0.64078 -15.99889,-7.55154 -23.82906,-11.6226 -9.06723,-4.71422 -11.49696,-6.05687 -11.49696,-6.35309 0,-0.55762 28.606,-14.80652 34.98398,-17.42584 l 1.56748,-0.64374 2.11516,0.90951 c 5.69425,2.44852 29.59795,14.49049 32.90571,16.57692 0.88712,0.55956 0.99657,0.72407 0.68199,1.0251 -1.60116,1.53219 -32.33626,16.80589 -35.56436,17.6736 -0.30007,0.0806 -0.91383,0.0176 -1.36394,-0.13986 z"
     style="fill:#ffffff;fill-opacity:1;stroke-width:0.27278787" />
</svg>
