<?xml version="1.0" encoding="UTF-8" standalone="no"?>
<svg
   xmlns:dc="http://purl.org/dc/elements/1.1/"
   xmlns:cc="http://creativecommons.org/ns#"
   xmlns:rdf="http://www.w3.org/1999/02/22-rdf-syntax-ns#"
   xmlns:svg="http://www.w3.org/2000/svg"
   xmlns="http://www.w3.org/2000/svg"
   xmlns:sodipodi="http://sodipodi.sourceforge.net/DTD/sodipodi-0.dtd"
   xmlns:inkscape="http://www.inkscape.org/namespaces/inkscape"
   width="512"
   height="512"
   version="1.1"
   viewBox="0 0 512 512"
   id="svg80"
   sodipodi:docname="folder-scripts.svg"
   inkscape:version="0.92.2 (unknown)">
  <metadata
     id="metadata84">
    <rdf:RDF>
      <cc:Work
         rdf:about="">
        <dc:format>image/svg+xml</dc:format>
        <dc:type
           rdf:resource="http://purl.org/dc/dcmitype/StillImage" />
        <dc:title></dc:title>
      </cc:Work>
    </rdf:RDF>
  </metadata>
  <sodipodi:namedview
     pagecolor="#ffffff"
     bordercolor="#666666"
     borderopacity="1"
     objecttolerance="10"
     gridtolerance="10"
     guidetolerance="10"
     inkscape:pageopacity="0"
     inkscape:pageshadow="2"
     inkscape:window-width="960"
     inkscape:window-height="1025"
     id="namedview82"
     showgrid="false"
     inkscape:zoom="0.91110239"
     inkscape:cx="88.907251"
     inkscape:cy="-36.726865"
     inkscape:window-x="960"
     inkscape:window-y="27"
     inkscape:window-maximized="0"
     inkscape:current-layer="svg80" />
  <defs
     id="defs70">
    <filter
       id="filter4166"
       style="color-interpolation-filters:sRGB"
       width="1.056"
       height="1.099"
       x="-.03"
       y="-.05">
      <feGaussianBlur
         stdDeviation="5.9"
         id="feGaussianBlur67" />
    </filter>
  </defs>
  <path
     style="fill:#245dc4;fill-rule:evenodd;stroke:#000000;stroke-width:0"
     d="m 55.066853,94.276715 c -7.824275,0 -14.123816,6.297845 -14.123816,14.122115 l 0,37.32867 0,120.13243 0,121.5455 0,7.30708 c 0,5.98757 4.819796,10.80737 10.807375,10.80737 l 408.499318,0 c 5.98757,0 10.80907,-4.8198 10.80907,-10.80737 l 0,-128.85257 -0.002,0 0,-120.13243 c 0,-11.78329 -9.48585,-21.26915 -21.26914,-21.26915 l -218.96832,0 c -5.81617,0 -8.11397,-0.68519 -11.8386,-4.18889 L 197.01302,98.500575 c -0.0748,-0.0762 -0.15164,-0.15024 -0.22814,-0.22473 l -0.0443,-0.0426 -0.002,0.002 c -2.53734,-2.44894 -5.98807,-3.95828 -9.80972,-3.95828 z"
     id="path72" />
  <path
     style="opacity:0.3;fill-rule:evenodd;stroke:#000000;stroke-width:0;filter:url(#filter4166)"
     d="m 28.241425,148.07206 c -12.87594,0 -23.24141,9.6069 -23.24141,21.54052 l 16,244.76159 0,7.4003 c 0,6.06398 5.26673,10.94526 11.80953,10.94526 l 446.379045,0 c 6.54281,0 11.81139,-4.88128 11.81139,-10.94526 l 15.998,-252.16189 c 0,-11.93362 -10.36547,-21.54052 -23.24141,-21.54052 l -455.515295,0 z"
     transform="matrix(0.88626203,0,0,0.86265191,29.117811,27.075351)"
     id="path74" />
  <path
     style="fill:#367bf0;fill-rule:evenodd;stroke:#000000;stroke-width:0"
     d="m 47.569939,157.23082 c -11.78328,0 -21.26914,8.79166 -21.26914,19.7126 l 14.64224,223.99111 v 6.77231 c 0,5.54939 4.81979,10.01644 10.80737,10.01644 H 460.24973 c 5.98757,0 10.80907,-4.46705 10.80907,-10.01644 l 14.64041,-230.76343 c 0,-10.92094 -9.48585,-19.71259 -21.26914,-19.71259 H 47.569809 Z"
     id="path76" />
  <path
     style="fill:#ffffff;stroke:#ffffff;stroke-width:8.0534277"
     d="m 210.266,677.75562 v 10.23918 h 66.88311 l 29.6789,36.22509 v 71.23218 h -9.28002 v 8.79037 h 18.05915 l -0.39094,-82.14317 v -2.12203 l -34.59168,-42.22172 z m 0.13406,16.91334 v 20.45878 h 8.38809 v -20.45878 z m 0,40.93565 v 20.47697 h 8.38809 v -20.47697 z m 0,42.70912 v 17.13834 h -14.0264 v 8.77378 h 14.0264 v 15.47624 h 8.37431 v -15.47624 h 14.04188 v -8.77378 h -14.04188 v -17.13834 z m 40.64512,17.13834 v 8.79037 h 24.03206 v -8.79037 z"
     id="path78" />
  <path
     inkscape:connector-curvature="0"
     style="font-size:103.42585754px;line-height:125%;font-family:'Ubuntu Mono';letter-spacing:0px;word-spacing:0px;fill:#ffffff;stroke:#ffffff;stroke-width:0"
     d="m 346.17398,349.76373 v 12.01663 h -89.41045 v -12.01663 z"
     id="path4-3" />
  <path
     inkscape:connector-curvature="0"
     style="fill:#ffffff;stroke:#ffffff;stroke-width:0"
     d="m 196.49839,201.12151 v 20.06522 c -9.80664,1.10922 -17.47819,4.01594 -22.97394,8.75538 -6.10635,5.26603 -9.16163,12.4677 -9.16163,21.59921 0,8.40326 2.80224,15.01339 8.4044,19.83124 5.13334,4.37097 13.06457,7.57394 23.73117,9.63937 v 38.78497 c -5.05174,-0.3019 -9.9975,-1.15856 -14.82303,-2.62922 -5.82625,-1.84871 -11.59832,-4.5655 -17.31254,-8.15088 v 15.12854 c 5.9383,2.52097 11.8495,4.42493 17.73178,5.71343 4.80074,1.00586 9.60306,1.61564 14.40379,1.87522 v 25.43416 h 3.32795 8.4044 3.32796 v -25.7819 c 10.35696,-1.15653 18.42375,-4.17434 24.15042,-9.09012 6.38644,-5.49013 9.57762,-12.97006 9.57762,-22.43771 0,-8.73936 -2.99508,-15.63102 -8.98939,-20.67297 -5.45319,-4.58679 -13.72179,-7.88206 -24.73865,-9.91886 v -36.23377 c 3.98922,0.35622 7.89544,1.02854 11.71283,2.03772 4.9299,1.2885 9.71826,3.10703 14.36805,5.45993 v -14.70605 c -4.64979,-1.51257 -9.40968,-2.68912 -14.28355,-3.52945 -3.82713,-0.70384 -7.76295,-1.19265 -11.79733,-1.48197 v -19.69149 h -3.32796 -8.4044 z m 0,32.10631 v 33.28281 c -5.3044,-1.19042 -9.30602,-2.89791 -11.96633,-5.13818 -3.1372,-2.68905 -4.70595,-6.44325 -4.70595,-11.2611 0,-4.9299 1.70788,-8.88021 5.12519,-11.84935 2.80505,-2.43718 6.66604,-4.10683 11.54709,-5.03418 z m 15.06031,50.77082 c 5.75381,1.34121 10.0908,3.23302 12.97381,5.69067 3.47334,2.91312 5.20968,6.83495 5.20968,11.76485 0,5.04193 -1.82177,9.10289 -5.46317,12.18407 -2.99943,2.57766 -7.25083,4.40141 -12.72032,5.48918 z"
     id="path8" />
</svg>
